<svg width="183" height="50" xmlns="http://www.w3.org/2000/svg">
 <!-- Created with Method Draw - http://github.com/duopixel/Method-Draw/ -->

 <g>
  <title>background</title>
  <rect fill="none" id="canvas_background" height="52" width="185" y="-1" x="-1"/>
  <g display="none" overflow="visible" y="0" x="0" height="100%" width="100%" id="canvasGrid">
   <rect fill="url(#gridpattern)" stroke-width="0" y="6" x="6" height="400" width="580"/>
  </g>
 </g>
 <g>
  <title>Layer 1</title>
  <g stroke="null" id="svg_20">
   <path stroke="null" id="svg_4" fill="#e6e9ef" d="m41.306501,16.590979l5.184585,5.88383l-10.878816,12.346041l-5.184585,-5.88383l10.878816,-12.346041z"/>
   <path stroke="null" id="svg_5" fill="#d9dde6" d="m34.995442,34.142429l10.881007,-12.348527l0.60873,0.69083l-10.881007,12.348527l-0.60873,-0.69083z"/>
   <path stroke="null" id="svg_6" fill="#d9dde6" d="m40.90037,17.050357l5.18459,5.883835l-1.490992,1.692082l-5.18459,-5.883835l1.490992,-1.692082z"/>
   <path stroke="null" id="svg_7" fill="#e6e9ef" d="m43.538199,42.655196l-11.85709,-20.813413l0,-20.041599l-11.38783,0l0,20.041599l-11.85709,20.813413c-2.099197,3.684811 0.231499,8.544611 4.097902,8.544611l26.906206,0c3.866403,0 6.197099,-4.8598 4.097902,-8.544611z"/>
   <path stroke="null" id="svg_8" fill="#00c1fb" d="m42.025843,43.76475l-5.17889,-9.090953l-21.719652,0l-5.17896,9.090953c-0.622149,1.091994 -0.666419,2.425751 -0.118658,3.567908c0.547755,1.141867 1.558561,1.823692 2.704285,1.823692l26.906316,0c1.145655,0 2.156814,-0.681825 2.704569,-1.824014s0.503213,-2.475591 -0.119011,-3.567585z"/>
   <path stroke="null" id="svg_9" fill="#d9dde6" d="m20.293278,2.530625l11.38783,0l0,3.826435l-11.38783,0l0,-3.826435z"/>
   <path stroke="null" id="svg_10" fill="#e6e9ef" d="m32.213292,1.800183l-12.452192,0c-0.845358,0 -1.530656,0.777724 -1.530656,1.737096c0,0.959411 0.685298,1.737135 1.530656,1.737135l12.452192,0c0.845352,0 1.530656,-0.777724 1.530656,-1.737135c0,-0.959371 -0.685304,-1.737096 -1.530656,-1.737096z"/>
   <path stroke="null" id="svg_11" opacity="0.25" fill="#fff" d="m13.040379,43.798061l10.371016,-19.449632l1.541515,1.058644l-10.371016,19.449632l-1.541515,-1.058644z"/>
   <path stroke="null" id="svg_12" fill="#e6e9ef" d="m47.059352,22.830521l-6.057477,-6.874448c-0.392405,-0.445355 -1.028694,-0.445355 -1.421221,0c-0.392399,0.445401 -0.392399,1.167507 0,1.612907l6.057477,6.874442c0.392527,0.445401 1.028816,0.445401 1.421221,0c0.392463,-0.445394 0.392463,-1.167507 0,-1.612901z"/>
   <g stroke="null" transform="matrix(0.5792980735020505,0,0,0.6574279635417748,3.4200581837725896,3.7573604872388287) " id="svg_13" fill="#00c1fb">
    <circle stroke="null" id="svg_14" r="1.945" cy="39.87835" cx="41.48546"/>
    <circle stroke="null" id="svg_15" r="1.945" cy="25.01035" cx="35.97946"/>
    <circle stroke="null" id="svg_16" r="1.67" cy="38.20835" cx="55.20246"/>
    <circle stroke="null" id="svg_17" r="1.67" cy="29.10235" cx="62.76746"/>
    <circle stroke="null" id="svg_18" r="1.945" cy="15.61735" cx="42.70746"/>
    <circle stroke="null" id="svg_19" r="1.945" cy="8.40035" cx="35.49046"/>
   </g>
  </g>
  <text stroke="#000" transform="matrix(1.0897173284504333,0,0,1,-5.143584505203648,0) " xml:space="preserve" text-anchor="start" font-family="Helvetica, Arial, sans-serif" font-size="25" id="svg_22" y="40.4375" x="46.941143" stroke-width="0" fill="#ffffff">LabControl</text>
 </g>
</svg>